<?xml version="1.0" encoding="iso-8859-1"?>
<!-- Generator: Adobe Illustrator 18.0.0, SVG Export Plug-In . SVG Version: 6.00 Build 0)  -->
<!DOCTYPE svg PUBLIC "-//W3C//DTD SVG 1.1//EN" "http://www.w3.org/Graphics/SVG/1.1/DTD/svg11.dtd">
<svg version="1.1" id="Capa_1" xmlns="http://www.w3.org/2000/svg" xmlns:xlink="http://www.w3.org/1999/xlink" x="0px" y="0px"
	 viewBox="0 0 432.968 432.968" style="enable-background:new 0 0 432.968 432.968;" xml:space="preserve">
<g>
	<g id="XMLID_27_">
		<g>
			<path style="fill:#B3B3B3;" d="M226.847,143.093v21.58c-6.91-0.13-13.82-0.13-20.72,0v-21.58c3.38,0.49,6.84,0.76,10.36,0.76
				S223.457,143.583,226.847,143.093z"/>
			<path style="fill:#B3B3B3;" d="M216.487,15.253c31.32,0,56.8,25.48,56.8,56.8s-25.48,56.8-56.8,56.8s-56.8-25.48-56.8-56.8
				S185.167,15.253,216.487,15.253z M255.287,72.053c0-21.4-17.41-38.8-38.8-38.8c-21.4,0-38.8,17.4-38.8,38.8
				c0,21.39,17.4,38.8,38.8,38.8C237.877,110.853,255.287,93.443,255.287,72.053z"/>
			<path style="fill:#B3B3B3;" d="M367.757,194.643l3.75,42.14c-1.95-1.74-4.68-2.34-7.2-1.56c-2.66,0.81-4.64,3.03-5.16,5.77
				c-6.02,31.76-18.42,61.36-36.85,87.95s-41.79,48.59-69.43,65.39l-36.38,22.11l-36.38-22.11c-55.46-33.71-94.2-89.6-106.29-153.34
				c-0.51-2.74-2.5-4.96-5.15-5.77c-2.53-0.78-5.25-0.18-7.21,1.56l3.75-42.14l30.75,35.71l-5.22-0.75
				c-2.52-0.36-5.05,0.58-6.72,2.5c-1.67,1.92-2.26,4.56-1.55,7l4.02,13.93c7.07,24.52,21.58,45.58,41.97,60.92
				c20.39,15.34,44.65,23.45,70.17,23.45c4.14,0,7.5-3.36,7.5-7.5v-110.67c3.45,0.07,6.9,0.1,10.36,0.1c3.45,0,6.9-0.03,10.36-0.1
				v110.67c0,4.14,3.36,7.5,7.5,7.5c25.51,0,49.77-8.11,70.16-23.45c20.39-15.34,34.91-36.4,41.98-60.92l4.02-13.93
				c0.7-2.44,0.12-5.08-1.55-7c-1.67-1.92-4.21-2.86-6.72-2.5l-5.22,0.75L367.757,194.643z"/>
			<path style="fill:#E0974F;" d="M287.567,184.263v15.38c-47.2,6.26-94.97,6.26-142.17,0v-15.38
				C192.597,178.003,240.367,178.003,287.567,184.263z"/>
			<path style="fill:#4D4D4D;" d="M388.277,256.013c0.28,3.14-1.44,6.12-4.3,7.46c-2.86,1.33-6.25,0.74-8.48-1.5l-4.59-4.59
				c-7.13,28.71-19.3,55.6-36.28,80.1c-19.64,28.33-44.53,51.77-73.97,69.67l-40.28,24.47c-1.19,0.73-2.54,1.09-3.89,1.09
				s-2.7-0.36-3.9-1.09l-40.27-24.47c-55.11-33.5-94.72-87.55-110.25-149.78l-4.6,4.6c-2.23,2.23-5.62,2.83-8.48,1.5
				c-2.86-1.34-4.57-4.32-4.29-7.46l7.14-80.38c0.27-3,2.31-5.55,5.18-6.47c2.87-0.93,6.01-0.04,7.97,2.24l55.37,64.3
				c2.04,2.37,2.4,5.76,0.9,8.5c-1.5,2.74-4.55,4.26-7.64,3.82l-13.52-1.93l0.8,2.79c6.16,21.36,18.81,39.72,36.58,53.09
				c15.76,11.85,34.17,18.75,53.65,20.16v-103.4c-18.15-0.83-36.27-2.53-54.31-5.14c-3.68-0.53-6.42-3.69-6.42-7.42v-28.44
				c0-3.73,2.74-6.89,6.42-7.42c18.04-2.61,36.16-4.31,54.31-5.14v-25.96c-27.11-10.28-46.44-36.5-46.44-67.16
				c0-39.59,32.21-71.8,71.8-71.8s71.8,32.21,71.8,71.8c0,30.66-19.33,56.88-46.44,67.16v25.96c18.15,0.83,36.27,2.53,54.3,5.14
				c3.69,0.53,6.42,3.69,6.42,7.42v28.44c0,3.73-2.73,6.89-6.42,7.42c-18.03,2.61-36.15,4.31-54.3,5.14v103.4
				c19.47-1.41,37.88-8.31,53.64-20.16c17.77-13.37,30.42-31.73,36.58-53.09l0.81-2.79l-13.53,1.93c-3.09,0.44-6.13-1.08-7.63-3.82
				c-1.51-2.74-1.15-6.13,0.89-8.5l55.37-64.3c1.97-2.28,5.11-3.17,7.98-2.24c2.87,0.92,4.91,3.47,5.17,6.47L388.277,256.013z
				 M371.507,236.783l-3.75-42.14l-30.74,35.71l5.22-0.75c2.51-0.36,5.05,0.58,6.72,2.5c1.67,1.92,2.25,4.56,1.55,7l-4.02,13.93
				c-7.07,24.52-21.59,45.58-41.98,60.92c-20.39,15.34-44.65,23.45-70.16,23.45c-4.14,0-7.5-3.36-7.5-7.5v-110.67
				c-3.46,0.07-6.91,0.1-10.36,0.1c-3.46,0-6.91-0.03-10.36-0.1v110.67c0,4.14-3.36,7.5-7.5,7.5c-25.52,0-49.78-8.11-70.17-23.45
				c-20.39-15.34-34.9-36.4-41.97-60.92l-4.02-13.93c-0.71-2.44-0.12-5.08,1.55-7c1.67-1.92,4.2-2.86,6.72-2.5l5.22,0.75
				l-30.75-35.71l-3.75,42.14c1.96-1.74,4.68-2.34,7.21-1.56c2.65,0.81,4.64,3.03,5.15,5.77c12.09,63.74,50.83,119.63,106.29,153.34
				l36.38,22.11l36.38-22.11c27.64-16.8,51-38.8,69.43-65.39s30.83-56.19,36.85-87.95c0.52-2.74,2.5-4.96,5.16-5.77
				C366.827,234.443,369.557,235.043,371.507,236.783z M287.567,199.643v-15.38c-47.2-6.26-94.97-6.26-142.17,0v15.38
				C192.597,205.903,240.367,205.903,287.567,199.643z M273.287,72.053c0-31.32-25.48-56.8-56.8-56.8s-56.8,25.48-56.8,56.8
				s25.48,56.8,56.8,56.8S273.287,103.373,273.287,72.053z M226.847,164.673v-21.58c-3.39,0.49-6.84,0.76-10.36,0.76
				s-6.98-0.27-10.36-0.76v21.58C213.027,164.543,219.937,164.543,226.847,164.673z"/>
			<path style="fill:#4D4D4D;" d="M216.487,33.253c21.39,0,38.8,17.4,38.8,38.8c0,21.39-17.41,38.8-38.8,38.8
				c-21.4,0-38.8-17.41-38.8-38.8C177.687,50.653,195.087,33.253,216.487,33.253z M240.287,72.053c0-13.13-10.68-23.8-23.8-23.8
				c-13.13,0-23.8,10.67-23.8,23.8c0,13.12,10.67,23.8,23.8,23.8C229.607,95.853,240.287,85.173,240.287,72.053z"/>
		</g>
		<g>
		</g>
	</g>
</g>
<g>
</g>
<g>
</g>
<g>
</g>
<g>
</g>
<g>
</g>
<g>
</g>
<g>
</g>
<g>
</g>
<g>
</g>
<g>
</g>
<g>
</g>
<g>
</g>
<g>
</g>
<g>
</g>
<g>
</g>
</svg>
