<?xml version="1.0" ?>

<!-- Uploaded to: SVG Repo, www.svgrepo.com, Generator: SVG Repo Mixer Tools -->
<svg width="800px" height="800px" viewBox="0 0 32 32" id="svg5" version="1.1" xmlns="http://www.w3.org/2000/svg" xmlns:svg="http://www.w3.org/2000/svg">

<defs id="defs2"/>

<g id="layer1" transform="translate(-348,-148)">

<path d="m 353,151.00586 c -1.6447,0 -3,1.3553 -3,3 v 21 c 0,1.6447 1.3553,3 3,3 h 22 c 1.6447,0 3,-1.3553 3,-3 v -21 c 0,-1.6447 -1.3553,-3 -3,-3 z m 0,2 h 22 c 0.5713,0 1,0.4287 1,1 v 21 c 0,0.5713 -0.4287,1 -1,1 h -22 c -0.5713,0 -1,-0.4287 -1,-1 v -21 c 0,-0.5713 0.4287,-1 1,-1 z" id="rect16619" style="color:#000000;fill:#000000;fill-rule:evenodd;stroke-linecap:round;stroke-linejoin:round;stroke-miterlimit:4.1;-inkscape-stroke:none"/>

<path d="m 351,158.00586 a 1,1 0 0 0 -1,1 1,1 0 0 0 1,1 h 26 a 1,1 0 0 0 1,-1 1,1 0 0 0 -1,-1 z" id="path24110" style="color:#000000;fill:#000000;fill-rule:evenodd;stroke-linecap:round;stroke-linejoin:round;stroke-miterlimit:4.1;-inkscape-stroke:none"/>

<path d="m 355,149.00586 a 1,1 0 0 0 -1,1 v 5 a 1,1 0 0 0 1,1 1,1 0 0 0 1,-1 v -5 a 1,1 0 0 0 -1,-1 z" id="path24112" style="color:#000000;fill:#000000;fill-rule:evenodd;stroke-linecap:round;stroke-linejoin:round;stroke-miterlimit:4.1;-inkscape-stroke:none"/>

<path d="m 364,149.00586 a 1,1 0 0 0 -1,1 v 5 a 1,1 0 0 0 1,1 1,1 0 0 0 1,-1 v -5 a 1,1 0 0 0 -1,-1 z" id="path24114" style="color:#000000;fill:#000000;fill-rule:evenodd;stroke-linecap:round;stroke-linejoin:round;stroke-miterlimit:4.1;-inkscape-stroke:none"/>

<path d="m 373,149.00586 a 1,1 0 0 0 -1,1 v 5 a 1,1 0 0 0 1,1 1,1 0 0 0 1,-1 v -5 a 1,1 0 0 0 -1,-1 z" id="path24116" style="color:#000000;fill:#000000;fill-rule:evenodd;stroke-linecap:round;stroke-linejoin:round;stroke-miterlimit:4.1;-inkscape-stroke:none"/>

<path d="m 356,162.00586 c -1.0907,0 -2,0.9093 -2,2 v 2 c 0,1.0907 0.9093,2 2,2 h 8 c 1.0907,0 2,-0.9093 2,-2 v -2 c 0,-1.0907 -0.9093,-2 -2,-2 z m 0,2 h 8 v 2 h -8 z" id="rect24120" style="color:#000000;fill:#000000;fill-rule:evenodd;stroke-linecap:round;stroke-linejoin:round;stroke-miterlimit:4.1;-inkscape-stroke:none"/>

<path d="m 370,162.00586 c -1.0907,0 -2,0.9093 -2,2 v 2 c 0,1.0907 0.9093,2 2,2 h 2 c 1.0907,0 2,-0.9093 2,-2 v -2 c 0,-1.0907 -0.9093,-2 -2,-2 z m 0,2 h 2 v 2 h -2 z" id="rect24122" style="color:#000000;fill:#000000;fill-rule:evenodd;stroke-linecap:round;stroke-linejoin:round;stroke-miterlimit:4.1;-inkscape-stroke:none"/>

<path d="m 363,169.00586 c -1.0907,0 -2,0.9093 -2,2 v 2 c 0,1.0907 0.9093,2 2,2 h 2 c 1.0907,0 2,-0.9093 2,-2 v -2 c 0,-1.0907 -0.9093,-2 -2,-2 z m 0,2 h 2 v 2 h -2 z" id="rect24124" style="color:#000000;fill:#000000;fill-rule:evenodd;stroke-linecap:round;stroke-linejoin:round;stroke-miterlimit:4.1;-inkscape-stroke:none"/>

<path d="m 356,169.00586 c -1.0907,0 -2,0.9093 -2,2 v 2 c 0,1.0907 0.9093,2 2,2 h 2 c 1.0907,0 2,-0.9093 2,-2 v -2 c 0,-1.0907 -0.9093,-2 -2,-2 z m 0,2 h 2 v 2 h -2 z" id="rect24126" style="color:#000000;fill:#000000;fill-rule:evenodd;stroke-linecap:round;stroke-linejoin:round;stroke-miterlimit:4.1;-inkscape-stroke:none"/>

<path d="m 370,169.00586 c -1.0907,0 -2,0.9093 -2,2 v 2 c 0,1.0907 0.9093,2 2,2 h 2 c 1.0907,0 2,-0.9093 2,-2 v -2 c 0,-1.0907 -0.9093,-2 -2,-2 z m 0,2 h 2 v 2 h -2 z" id="rect24128" style="color:#000000;fill:#000000;fill-rule:evenodd;stroke-linecap:round;stroke-linejoin:round;stroke-miterlimit:4.1;-inkscape-stroke:none"/>

</g>

</svg>