<?xml version="1.0" encoding="iso-8859-1"?>
<!-- Generator: Adobe Illustrator 19.0.0, SVG Export Plug-In . SVG Version: 6.00 Build 0)  -->
<svg version="1.1" id="Layer_1" xmlns="http://www.w3.org/2000/svg" xmlns:xlink="http://www.w3.org/1999/xlink" x="0px" y="0px"
	 viewBox="0 0 512.001 512.001" style="enable-background:new 0 0 512.001 512.001;" xml:space="preserve">
<path style="fill:#FF6464;" d="M397.241,114.759l3.836-42.186c0.374-4.114,2.178-7.965,5.099-10.886l37.79-37.79
	c3.447-3.447,9.037-3.447,12.484,0l31.654,31.654c3.447,3.447,3.447,9.037,0,12.484l-37.79,37.79
	c-2.921,2.921-6.773,4.725-10.885,5.099L397.241,114.759z"/>
<circle style="fill:#707487;" cx="211.862" cy="300.139" r="211.862"/>
<circle style="fill:#00D2FF;" cx="211.862" cy="300.139" r="158.897"/>
<circle style="fill:#FF6464;" cx="211.862" cy="300.139" r="105.931"/>
<circle style="fill:#FFE164;" cx="211.862" cy="300.139" r="52.966"/>
<path style="fill:#464655;" d="M211.862,308.966c-2.259,0-4.518-0.862-6.241-2.586c-3.448-3.448-3.448-9.035,0-12.483l291.31-291.31
	c3.448-3.448,9.035-3.448,12.483,0c3.448,3.448,3.448,9.035,0,12.483l-291.31,291.31
	C216.38,308.105,214.121,308.966,211.862,308.966z"/>
<path style="fill:#FF6464;" d="M509.414,2.587c-3.448-3.448-9.035-3.448-12.483,0l-15.068,15.069l12.482,12.483l15.069-15.069
	C512.862,11.621,512.862,6.036,509.414,2.587z"/>
<g>
</g>
<g>
</g>
<g>
</g>
<g>
</g>
<g>
</g>
<g>
</g>
<g>
</g>
<g>
</g>
<g>
</g>
<g>
</g>
<g>
</g>
<g>
</g>
<g>
</g>
<g>
</g>
<g>
</g>
</svg>
